<?xml version="1.0" standalone="no"?>
<!DOCTYPE svg PUBLIC "-//W3C//DTD SVG 20010904//EN"
 "http://www.w3.org/TR/2001/REC-SVG-20010904/DTD/svg10.dtd">
<svg version="1.0" xmlns="http://www.w3.org/2000/svg"
 width="500.000000pt" height="500.000000pt" viewBox="0 0 500.000000 500.000000"
 preserveAspectRatio="xMidYMid meet">

<g transform="translate(0.000000,500.000000) scale(0.100000,-0.100000)"
fill="#000000" stroke="none">
<path d="M1415 4371 l-1070 -618 0 -1253 0 -1253 1070 -618 c589 -340 1077
-619 1085 -619 8 0 497 278 1085 618 l1070 618 0 1254 0 1254 -1070 618 c-588
340 -1077 618 -1085 618 -8 0 -496 -279 -1085 -619z m810 -1153 c22 0 65 1 95
2 81 3 232 -6 253 -15 10 -4 17 -3 17 4 0 14 102 15 117 0 8 -8 17 -8 33 1 12
6 28 9 37 6 8 -3 23 -1 33 4 13 7 20 6 22 -2 3 -7 28 -13 61 -14 30 -1 61 -5
66 -9 6 -3 11 -30 11 -60 0 -30 5 -57 10 -60 6 -4 10 -39 8 -83 -1 -42 2 -98
6 -125 7 -36 5 -53 -8 -72 -9 -13 -16 -37 -16 -53 0 -16 -9 -37 -20 -47 -18
-17 -21 -17 -45 -1 -15 10 -25 26 -25 39 0 24 -33 67 -50 67 -15 0 -12 76 3
89 8 6 17 8 20 4 4 -3 7 1 7 10 0 9 -5 17 -11 17 -8 0 -10 22 -7 70 4 58 3 68
-8 59 -15 -13 -34 -4 -34 16 0 36 -89 47 -129 16 -19 -15 -30 -17 -47 -9 -45
21 -57 4 -52 -67 3 -36 2 -65 -3 -65 -5 0 -4 -10 2 -22 25 -48 27 -55 16 -73
-6 -11 -12 -44 -13 -73 -2 -30 -8 -59 -13 -66 -10 -12 -3 -66 8 -66 4 0 6 -39
5 -87 -1 -49 3 -91 8 -94 5 -3 4 -17 -3 -33 -9 -20 -10 -35 -1 -63 8 -25 8
-42 1 -56 -6 -10 -8 -28 -5 -40 3 -11 0 -39 -6 -62 -6 -24 -8 -50 -3 -61 4
-10 7 -29 6 -41 -1 -12 5 -36 14 -53 9 -18 14 -38 12 -45 -9 -23 15 -34 60
-28 29 4 43 2 43 -6 0 -21 40 -51 69 -51 29 0 41 -14 41 -50 0 -25 -46 -93
-69 -101 -17 -7 -113 5 -130 15 -5 3 -12 -1 -15 -10 -5 -14 -8 -14 -22 1 -11
11 -24 14 -38 10 -35 -12 -316 -15 -316 -4 0 5 -11 14 -25 19 -21 8 -25 16
-25 48 0 22 5 53 11 70 10 29 14 30 79 37 38 4 73 4 79 1 16 -10 61 46 63 79
1 16 3 55 5 85 2 30 3 72 3 93 -1 98 -1 148 3 217 3 41 1 92 -3 113 -4 20 -4
37 0 37 13 0 21 32 11 44 -12 14 -11 157 1 173 6 7 6 40 1 80 -5 37 -8 93 -7
123 3 64 -3 70 -69 70 -27 0 -57 5 -69 11 -16 9 -24 7 -41 -9 -12 -10 -30 -22
-39 -25 -14 -5 -15 -10 -6 -35 9 -24 8 -33 -10 -58 -18 -23 -20 -35 -13 -59 5
-17 4 -41 -1 -54 -5 -15 -5 -36 2 -54 5 -17 10 -32 10 -34 0 -8 -92 -43 -101
-37 -5 3 -9 -2 -9 -10 0 -10 -9 -16 -25 -16 -42 0 -75 96 -43 128 9 9 9 17 -2
36 -10 20 -10 31 -1 54 10 24 10 34 0 50 -10 16 -10 31 -1 71 8 34 8 59 2 77
-13 34 -13 97 0 89 6 -3 10 1 10 9 0 20 9 20 32 -1 16 -15 20 -15 36 0 20 18
59 27 87 19 11 -3 38 -5 60 -4z"/>
</g>
</svg>
